<mxfile host="drawio-plugin" modified="2024-01-11T16:10:06.087Z" agent="5.0 (Windows NT 6.2; Win64; x64) AppleWebKit/537.36 (KHTML, like Gecko) Chrome/104.0.5112.102 Safari/537.36" etag="uSXPWmvwtmoIMpebjmin" version="20.5.3" type="embed"><diagram id="uI-WDRfX-wRvKrLKB0C7" name="Page-1"><mxGraphModel dx="649" dy="563" grid="1" gridSize="10" guides="1" tooltips="1" connect="1" arrows="1" fold="1" page="1" pageScale="1" pageWidth="850" pageHeight="1100" math="0" shadow="0"><root><mxCell id="0"/><mxCell id="1" parent="0"/><mxCell id="10" value="Dish" style="swimlane;fontStyle=1;align=center;verticalAlign=top;childLayout=stackLayout;horizontal=1;startSize=26;horizontalStack=0;resizeParent=1;resizeParentMax=0;resizeLast=0;collapsible=1;marginBottom=0;fillColor=#1ba1e2;fontColor=#ffffff;strokeColor=#006EAF;" parent="1" vertex="1"><mxGeometry x="30" y="140" width="180" height="96" as="geometry"/></mxCell><mxCell id="11" value="+ field: name                    String" style="text;strokeColor=#432D57;fillColor=#76608a;align=left;verticalAlign=top;spacingLeft=4;spacingRight=4;overflow=hidden;rotatable=0;points=[[0,0.5],[1,0.5]];portConstraint=eastwest;fontColor=#ffffff;" parent="10" vertex="1"><mxGeometry y="26" width="180" height="22" as="geometry"/></mxCell><mxCell id="13" value="+ field: cost                       int" style="text;strokeColor=#432D57;fillColor=#76608a;align=left;verticalAlign=top;spacingLeft=4;spacingRight=4;overflow=hidden;rotatable=0;points=[[0,0.5],[1,0.5]];portConstraint=eastwest;fontColor=#ffffff;" parent="10" vertex="1"><mxGeometry y="48" width="180" height="22" as="geometry"/></mxCell><mxCell id="12" value="+ method: serverFood()    void" style="text;strokeColor=#C73500;fillColor=#fa6800;align=left;verticalAlign=top;spacingLeft=4;spacingRight=4;overflow=hidden;rotatable=0;points=[[0,0.5],[1,0.5]];portConstraint=eastwest;fontColor=#000000;" parent="10" vertex="1"><mxGeometry y="70" width="180" height="26" as="geometry"/></mxCell><mxCell id="14" value="«interface»&lt;br&gt;&lt;b&gt;Food&lt;/b&gt;" style="html=1;fillColor=#60a917;fontColor=#ffffff;strokeColor=#2D7600;" vertex="1" parent="1"><mxGeometry x="260" y="20" width="190" height="30" as="geometry"/></mxCell><mxCell id="15" value="&lt;p style=&quot;margin: 4px 0px 0px;&quot;&gt;+ method: serveFood()&amp;nbsp; &amp;nbsp; &amp;nbsp; &amp;nbsp; &amp;nbsp; void&lt;br&gt;&lt;br&gt;&lt;/p&gt;" style="verticalAlign=top;align=left;overflow=fill;fontSize=12;fontFamily=Helvetica;html=1;fillColor=#6d8764;fontColor=#ffffff;strokeColor=#3A5431;" vertex="1" parent="1"><mxGeometry x="260" y="50" width="190" height="20" as="geometry"/></mxCell><mxCell id="16" value="Restaurant" style="swimlane;fontStyle=1;align=center;verticalAlign=top;childLayout=stackLayout;horizontal=1;startSize=26;horizontalStack=0;resizeParent=1;resizeParentMax=0;resizeLast=0;collapsible=1;marginBottom=0;fillColor=#1ba1e2;fontColor=#ffffff;strokeColor=#006EAF;" vertex="1" parent="1"><mxGeometry x="30" y="290" width="220" height="48" as="geometry"/></mxCell><mxCell id="17" value="+ field: dishMap      Map&lt;String, Food&gt;" style="text;strokeColor=#432D57;fillColor=#76608a;align=left;verticalAlign=top;spacingLeft=4;spacingRight=4;overflow=hidden;rotatable=0;points=[[0,0.5],[1,0.5]];portConstraint=eastwest;fontColor=#ffffff;" vertex="1" parent="16"><mxGeometry y="26" width="220" height="22" as="geometry"/></mxCell><mxCell id="19" value="" style="endArrow=block;dashed=1;endFill=0;endSize=12;html=1;rounded=0;entryX=0.431;entryY=1.18;entryDx=0;entryDy=0;entryPerimeter=0;exitX=0.451;exitY=-0.025;exitDx=0;exitDy=0;exitPerimeter=0;fillColor=#60a917;strokeColor=#80FF00;" edge="1" parent="1" source="10" target="15"><mxGeometry width="160" relative="1" as="geometry"><mxPoint x="340" y="338.20000000000005" as="sourcePoint"/><mxPoint x="499.5" y="290" as="targetPoint"/><Array as="points"/></mxGeometry></mxCell></root></mxGraphModel></diagram></mxfile>